<svg xmlns="http://www.w3.org/2000/svg" xmlns:xlink="http://www.w3.org/1999/xlink" version="1.1" class="marks" width="370" height="364" viewBox="0 0 370 364"><rect width="370" height="364" fill="white"/><g fill="none" stroke-miterlimit="10" transform="translate(64,27)"><g class="mark-group role-frame root" role="graphics-object" aria-roledescription="group mark container"><g transform="translate(0,0)"><path class="background" aria-hidden="true" d="M0.5,0.5h300v300h-300Z" stroke="#ddd"/><g><g class="mark-group role-axis" aria-hidden="true"><g transform="translate(0.5,0.5)"><path class="background" aria-hidden="true" d="M0,0h0v0h0Z" pointer-events="none"/><g><g class="mark-rule role-axis-grid" pointer-events="none"><line transform="translate(0,300)" x2="300" y2="0" stroke="#ddd" stroke-width="1" opacity="1"/><line transform="translate(0,282)" x2="300" y2="0" stroke="#ddd" stroke-width="1" opacity="1"/><line transform="translate(0,271)" x2="300" y2="0" stroke="#ddd" stroke-width="1" opacity="1"/><line transform="translate(0,264)" x2="300" y2="0" stroke="#ddd" stroke-width="1" opacity="1"/><line transform="translate(0,258)" x2="300" y2="0" stroke="#ddd" stroke-width="1" opacity="1"/><line transform="translate(0,253)" x2="300" y2="0" stroke="#ddd" stroke-width="1" opacity="1"/><line transform="translate(0,249)" x2="300" y2="0" stroke="#ddd" stroke-width="1" opacity="1"/><line transform="translate(0,246)" x2="300" y2="0" stroke="#ddd" stroke-width="1" opacity="1"/><line transform="translate(0,243)" x2="300" y2="0" stroke="#ddd" stroke-width="1" opacity="1"/><line transform="translate(0,240)" x2="300" y2="0" stroke="#ddd" stroke-width="1" opacity="1"/><line transform="translate(0,222)" x2="300" y2="0" stroke="#ddd" stroke-width="1" opacity="1"/><line transform="translate(0,211)" x2="300" y2="0" stroke="#ddd" stroke-width="1" opacity="1"/><line transform="translate(0,204)" x2="300" y2="0" stroke="#ddd" stroke-width="1" opacity="1"/><line transform="translate(0,198)" x2="300" y2="0" stroke="#ddd" stroke-width="1" opacity="1"/><line transform="translate(0,193)" x2="300" y2="0" stroke="#ddd" stroke-width="1" opacity="1"/><line transform="translate(0,189)" x2="300" y2="0" stroke="#ddd" stroke-width="1" opacity="1"/><line transform="translate(0,186)" x2="300" y2="0" stroke="#ddd" stroke-width="1" opacity="1"/><line transform="translate(0,183)" x2="300" y2="0" stroke="#ddd" stroke-width="1" opacity="1"/><line transform="translate(0,180)" x2="300" y2="0" stroke="#ddd" stroke-width="1" opacity="1"/><line transform="translate(0,162)" x2="300" y2="0" stroke="#ddd" stroke-width="1" opacity="1"/><line transform="translate(0,151)" x2="300" y2="0" stroke="#ddd" stroke-width="1" opacity="1"/><line transform="translate(0,144)" x2="300" y2="0" stroke="#ddd" stroke-width="1" opacity="1"/><line transform="translate(0,138)" x2="300" y2="0" stroke="#ddd" stroke-width="1" opacity="1"/><line transform="translate(0,133)" x2="300" y2="0" stroke="#ddd" stroke-width="1" opacity="1"/><line transform="translate(0,129)" x2="300" y2="0" stroke="#ddd" stroke-width="1" opacity="1"/><line transform="translate(0,126)" x2="300" y2="0" stroke="#ddd" stroke-width="1" opacity="1"/><line transform="translate(0,123)" x2="300" y2="0" stroke="#ddd" stroke-width="1" opacity="1"/><line transform="translate(0,120)" x2="300" y2="0" stroke="#ddd" stroke-width="1" opacity="1"/><line transform="translate(0,102)" x2="300" y2="0" stroke="#ddd" stroke-width="1" opacity="1"/><line transform="translate(0,91)" x2="300" y2="0" stroke="#ddd" stroke-width="1" opacity="1"/><line transform="translate(0,84)" x2="300" y2="0" stroke="#ddd" stroke-width="1" opacity="1"/><line transform="translate(0,78)" x2="300" y2="0" stroke="#ddd" stroke-width="1" opacity="1"/><line transform="translate(0,73)" x2="300" y2="0" stroke="#ddd" stroke-width="1" opacity="1"/><line transform="translate(0,69)" x2="300" y2="0" stroke="#ddd" stroke-width="1" opacity="1"/><line transform="translate(0,66)" x2="300" y2="0" stroke="#ddd" stroke-width="1" opacity="1"/><line transform="translate(0,63)" x2="300" y2="0" stroke="#ddd" stroke-width="1" opacity="1"/><line transform="translate(0,60)" x2="300" y2="0" stroke="#ddd" stroke-width="1" opacity="1"/><line transform="translate(0,42)" x2="300" y2="0" stroke="#ddd" stroke-width="1" opacity="1"/><line transform="translate(0,31)" x2="300" y2="0" stroke="#ddd" stroke-width="1" opacity="1"/><line transform="translate(0,24)" x2="300" y2="0" stroke="#ddd" stroke-width="1" opacity="1"/><line transform="translate(0,18)" x2="300" y2="0" stroke="#ddd" stroke-width="1" opacity="1"/><line transform="translate(0,13)" x2="300" y2="0" stroke="#ddd" stroke-width="1" opacity="1"/><line transform="translate(0,9)" x2="300" y2="0" stroke="#ddd" stroke-width="1" opacity="1"/><line transform="translate(0,6)" x2="300" y2="0" stroke="#ddd" stroke-width="1" opacity="1"/><line transform="translate(0,3)" x2="300" y2="0" stroke="#ddd" stroke-width="1" opacity="1"/><line transform="translate(0,0)" x2="300" y2="0" stroke="#ddd" stroke-width="1" opacity="1"/></g></g><path class="foreground" aria-hidden="true" d="" pointer-events="none" display="none"/></g></g><g class="mark-group role-axis" role="graphics-symbol" aria-roledescription="axis" aria-label="X-axis titled 'Rozmiar klastru' for a linear scale with values from 0 to 570"><g transform="translate(0.5,300.5)"><path class="background" aria-hidden="true" d="M0,0h0v0h0Z" pointer-events="none"/><g><g class="mark-rule role-axis-tick" pointer-events="none"><line transform="translate(0,0)" x2="0" y2="5" stroke="#888" stroke-width="1" opacity="1"/><line transform="translate(8,0)" x2="0" y2="5" stroke="#888" stroke-width="1" opacity="1"/><line transform="translate(16,0)" x2="0" y2="5" stroke="#888" stroke-width="1" opacity="1"/><line transform="translate(24,0)" x2="0" y2="5" stroke="#888" stroke-width="1" opacity="1"/><line transform="translate(32,0)" x2="0" y2="5" stroke="#888" stroke-width="1" opacity="1"/><line transform="translate(39,0)" x2="0" y2="5" stroke="#888" stroke-width="1" opacity="1"/><line transform="translate(47,0)" x2="0" y2="5" stroke="#888" stroke-width="1" opacity="1"/><line transform="translate(55,0)" x2="0" y2="5" stroke="#888" stroke-width="1" opacity="1"/><line transform="translate(63,0)" x2="0" y2="5" stroke="#888" stroke-width="1" opacity="1"/><line transform="translate(71,0)" x2="0" y2="5" stroke="#888" stroke-width="1" opacity="1"/><line transform="translate(79,0)" x2="0" y2="5" stroke="#888" stroke-width="1" opacity="1"/><line transform="translate(87,0)" x2="0" y2="5" stroke="#888" stroke-width="1" opacity="1"/><line transform="translate(95,0)" x2="0" y2="5" stroke="#888" stroke-width="1" opacity="1"/><line transform="translate(103,0)" x2="0" y2="5" stroke="#888" stroke-width="1" opacity="1"/><line transform="translate(111,0)" x2="0" y2="5" stroke="#888" stroke-width="1" opacity="1"/><line transform="translate(118,0)" x2="0" y2="5" stroke="#888" stroke-width="1" opacity="1"/><line transform="translate(126,0)" x2="0" y2="5" stroke="#888" stroke-width="1" opacity="1"/><line transform="translate(134,0)" x2="0" y2="5" stroke="#888" stroke-width="1" opacity="1"/><line transform="translate(142,0)" x2="0" y2="5" stroke="#888" stroke-width="1" opacity="1"/><line transform="translate(150,0)" x2="0" y2="5" stroke="#888" stroke-width="1" opacity="1"/><line transform="translate(158,0)" x2="0" y2="5" stroke="#888" stroke-width="1" opacity="1"/><line transform="translate(166,0)" x2="0" y2="5" stroke="#888" stroke-width="1" opacity="1"/><line transform="translate(174,0)" x2="0" y2="5" stroke="#888" stroke-width="1" opacity="1"/><line transform="translate(182,0)" x2="0" y2="5" stroke="#888" stroke-width="1" opacity="1"/><line transform="translate(189,0)" x2="0" y2="5" stroke="#888" stroke-width="1" opacity="1"/><line transform="translate(197,0)" x2="0" y2="5" stroke="#888" stroke-width="1" opacity="1"/><line transform="translate(205,0)" x2="0" y2="5" stroke="#888" stroke-width="1" opacity="1"/><line transform="translate(213,0)" x2="0" y2="5" stroke="#888" stroke-width="1" opacity="1"/><line transform="translate(221,0)" x2="0" y2="5" stroke="#888" stroke-width="1" opacity="1"/><line transform="translate(229,0)" x2="0" y2="5" stroke="#888" stroke-width="1" opacity="1"/><line transform="translate(237,0)" x2="0" y2="5" stroke="#888" stroke-width="1" opacity="1"/><line transform="translate(245,0)" x2="0" y2="5" stroke="#888" stroke-width="1" opacity="1"/><line transform="translate(253,0)" x2="0" y2="5" stroke="#888" stroke-width="1" opacity="1"/><line transform="translate(261,0)" x2="0" y2="5" stroke="#888" stroke-width="1" opacity="1"/><line transform="translate(268,0)" x2="0" y2="5" stroke="#888" stroke-width="1" opacity="1"/><line transform="translate(276,0)" x2="0" y2="5" stroke="#888" stroke-width="1" opacity="1"/><line transform="translate(284,0)" x2="0" y2="5" stroke="#888" stroke-width="1" opacity="1"/><line transform="translate(292,0)" x2="0" y2="5" stroke="#888" stroke-width="1" opacity="1"/><line transform="translate(300,0)" x2="0" y2="5" stroke="#888" stroke-width="1" opacity="1"/></g><g class="mark-text role-axis-label" pointer-events="none"><text text-anchor="start" transform="translate(0,15)" font-family="sans-serif" font-size="10px" fill="#000" opacity="1">0</text><text text-anchor="middle" transform="translate(7.894736842105263,15)" font-family="sans-serif" font-size="10px" fill="#000" opacity="0">15</text><text text-anchor="middle" transform="translate(15.789473684210526,15)" font-family="sans-serif" font-size="10px" fill="#000" opacity="0">30</text><text text-anchor="middle" transform="translate(23.684210526315788,15)" font-family="sans-serif" font-size="10px" fill="#000" opacity="0">45</text><text text-anchor="middle" transform="translate(31.57894736842105,15)" font-family="sans-serif" font-size="10px" fill="#000" opacity="1">60</text><text text-anchor="middle" transform="translate(39.473684210526315,15)" font-family="sans-serif" font-size="10px" fill="#000" opacity="0">75</text><text text-anchor="middle" transform="translate(47.368421052631575,15)" font-family="sans-serif" font-size="10px" fill="#000" opacity="0">90</text><text text-anchor="middle" transform="translate(55.26315789473684,15)" font-family="sans-serif" font-size="10px" fill="#000" opacity="0">105</text><text text-anchor="middle" transform="translate(63.1578947368421,15)" font-family="sans-serif" font-size="10px" fill="#000" opacity="1">120</text><text text-anchor="middle" transform="translate(71.05263157894737,15)" font-family="sans-serif" font-size="10px" fill="#000" opacity="0">135</text><text text-anchor="middle" transform="translate(78.94736842105263,15)" font-family="sans-serif" font-size="10px" fill="#000" opacity="0">150</text><text text-anchor="middle" transform="translate(86.8421052631579,15)" font-family="sans-serif" font-size="10px" fill="#000" opacity="0">165</text><text text-anchor="middle" transform="translate(94.73684210526315,15)" font-family="sans-serif" font-size="10px" fill="#000" opacity="1">180</text><text text-anchor="middle" transform="translate(102.63157894736842,15)" font-family="sans-serif" font-size="10px" fill="#000" opacity="0">195</text><text text-anchor="middle" transform="translate(110.52631578947368,15)" font-family="sans-serif" font-size="10px" fill="#000" opacity="0">210</text><text text-anchor="middle" transform="translate(118.42105263157895,15)" font-family="sans-serif" font-size="10px" fill="#000" opacity="0">225</text><text text-anchor="middle" transform="translate(126.3157894736842,15)" font-family="sans-serif" font-size="10px" fill="#000" opacity="1">240</text><text text-anchor="middle" transform="translate(134.21052631578948,15)" font-family="sans-serif" font-size="10px" fill="#000" opacity="0">255</text><text text-anchor="middle" transform="translate(142.10526315789474,15)" font-family="sans-serif" font-size="10px" fill="#000" opacity="0">270</text><text text-anchor="middle" transform="translate(150,15)" font-family="sans-serif" font-size="10px" fill="#000" opacity="0">285</text><text text-anchor="middle" transform="translate(157.89473684210526,15)" font-family="sans-serif" font-size="10px" fill="#000" opacity="1">300</text><text text-anchor="middle" transform="translate(165.78947368421055,15)" font-family="sans-serif" font-size="10px" fill="#000" opacity="0">315</text><text text-anchor="middle" transform="translate(173.6842105263158,15)" font-family="sans-serif" font-size="10px" fill="#000" opacity="0">330</text><text text-anchor="middle" transform="translate(181.57894736842104,15)" font-family="sans-serif" font-size="10px" fill="#000" opacity="0">345</text><text text-anchor="middle" transform="translate(189.4736842105263,15)" font-family="sans-serif" font-size="10px" fill="#000" opacity="1">360</text><text text-anchor="middle" transform="translate(197.3684210526316,15)" font-family="sans-serif" font-size="10px" fill="#000" opacity="0">375</text><text text-anchor="middle" transform="translate(205.26315789473685,15)" font-family="sans-serif" font-size="10px" fill="#000" opacity="0">390</text><text text-anchor="middle" transform="translate(213.1578947368421,15)" font-family="sans-serif" font-size="10px" fill="#000" opacity="0">405</text><text text-anchor="middle" transform="translate(221.05263157894737,15)" font-family="sans-serif" font-size="10px" fill="#000" opacity="1">420</text><text text-anchor="middle" transform="translate(228.94736842105263,15)" font-family="sans-serif" font-size="10px" fill="#000" opacity="0">435</text><text text-anchor="middle" transform="translate(236.8421052631579,15)" font-family="sans-serif" font-size="10px" fill="#000" opacity="0">450</text><text text-anchor="middle" transform="translate(244.73684210526315,15)" font-family="sans-serif" font-size="10px" fill="#000" opacity="0">465</text><text text-anchor="middle" transform="translate(252.6315789473684,15)" font-family="sans-serif" font-size="10px" fill="#000" opacity="1">480</text><text text-anchor="middle" transform="translate(260.5263157894737,15)" font-family="sans-serif" font-size="10px" fill="#000" opacity="0">495</text><text text-anchor="middle" transform="translate(268.42105263157896,15)" font-family="sans-serif" font-size="10px" fill="#000" opacity="0">510</text><text text-anchor="middle" transform="translate(276.3157894736842,15)" font-family="sans-serif" font-size="10px" fill="#000" opacity="0">525</text><text text-anchor="middle" transform="translate(284.2105263157895,15)" font-family="sans-serif" font-size="10px" fill="#000" opacity="1">540</text><text text-anchor="middle" transform="translate(292.10526315789474,15)" font-family="sans-serif" font-size="10px" fill="#000" opacity="0">555</text><text text-anchor="end" transform="translate(300,15)" font-family="sans-serif" font-size="10px" fill="#000" opacity="0">570</text></g><g class="mark-rule role-axis-domain" pointer-events="none"><line transform="translate(0,0)" x2="300" y2="0" stroke="#888" stroke-width="1" opacity="1"/></g><g class="mark-text role-axis-title" pointer-events="none"><text text-anchor="middle" transform="translate(150,30)" font-family="sans-serif" font-size="11px" font-weight="bold" fill="#000" opacity="1">Rozmiar klastru</text></g></g><path class="foreground" aria-hidden="true" d="" pointer-events="none" display="none"/></g></g><g class="mark-group role-axis" role="graphics-symbol" aria-roledescription="axis" aria-label="Y-axis titled 'Ilość klastrów' for a log scale with values from 1 to 100,000"><g transform="translate(0.5,0.5)"><path class="background" aria-hidden="true" d="M0,0h0v0h0Z" pointer-events="none"/><g><g class="mark-rule role-axis-tick" pointer-events="none"><line transform="translate(0,300)" x2="-5" y2="0" stroke="#888" stroke-width="1" opacity="1"/><line transform="translate(0,282)" x2="-5" y2="0" stroke="#888" stroke-width="1" opacity="1"/><line transform="translate(0,271)" x2="-5" y2="0" stroke="#888" stroke-width="1" opacity="1"/><line transform="translate(0,264)" x2="-5" y2="0" stroke="#888" stroke-width="1" opacity="1"/><line transform="translate(0,258)" x2="-5" y2="0" stroke="#888" stroke-width="1" opacity="1"/><line transform="translate(0,253)" x2="-5" y2="0" stroke="#888" stroke-width="1" opacity="1"/><line transform="translate(0,249)" x2="-5" y2="0" stroke="#888" stroke-width="1" opacity="1"/><line transform="translate(0,246)" x2="-5" y2="0" stroke="#888" stroke-width="1" opacity="1"/><line transform="translate(0,243)" x2="-5" y2="0" stroke="#888" stroke-width="1" opacity="1"/><line transform="translate(0,240)" x2="-5" y2="0" stroke="#888" stroke-width="1" opacity="1"/><line transform="translate(0,222)" x2="-5" y2="0" stroke="#888" stroke-width="1" opacity="1"/><line transform="translate(0,211)" x2="-5" y2="0" stroke="#888" stroke-width="1" opacity="1"/><line transform="translate(0,204)" x2="-5" y2="0" stroke="#888" stroke-width="1" opacity="1"/><line transform="translate(0,198)" x2="-5" y2="0" stroke="#888" stroke-width="1" opacity="1"/><line transform="translate(0,193)" x2="-5" y2="0" stroke="#888" stroke-width="1" opacity="1"/><line transform="translate(0,189)" x2="-5" y2="0" stroke="#888" stroke-width="1" opacity="1"/><line transform="translate(0,186)" x2="-5" y2="0" stroke="#888" stroke-width="1" opacity="1"/><line transform="translate(0,183)" x2="-5" y2="0" stroke="#888" stroke-width="1" opacity="1"/><line transform="translate(0,180)" x2="-5" y2="0" stroke="#888" stroke-width="1" opacity="1"/><line transform="translate(0,162)" x2="-5" y2="0" stroke="#888" stroke-width="1" opacity="1"/><line transform="translate(0,151)" x2="-5" y2="0" stroke="#888" stroke-width="1" opacity="1"/><line transform="translate(0,144)" x2="-5" y2="0" stroke="#888" stroke-width="1" opacity="1"/><line transform="translate(0,138)" x2="-5" y2="0" stroke="#888" stroke-width="1" opacity="1"/><line transform="translate(0,133)" x2="-5" y2="0" stroke="#888" stroke-width="1" opacity="1"/><line transform="translate(0,129)" x2="-5" y2="0" stroke="#888" stroke-width="1" opacity="1"/><line transform="translate(0,126)" x2="-5" y2="0" stroke="#888" stroke-width="1" opacity="1"/><line transform="translate(0,123)" x2="-5" y2="0" stroke="#888" stroke-width="1" opacity="1"/><line transform="translate(0,120)" x2="-5" y2="0" stroke="#888" stroke-width="1" opacity="1"/><line transform="translate(0,102)" x2="-5" y2="0" stroke="#888" stroke-width="1" opacity="1"/><line transform="translate(0,91)" x2="-5" y2="0" stroke="#888" stroke-width="1" opacity="1"/><line transform="translate(0,84)" x2="-5" y2="0" stroke="#888" stroke-width="1" opacity="1"/><line transform="translate(0,78)" x2="-5" y2="0" stroke="#888" stroke-width="1" opacity="1"/><line transform="translate(0,73)" x2="-5" y2="0" stroke="#888" stroke-width="1" opacity="1"/><line transform="translate(0,69)" x2="-5" y2="0" stroke="#888" stroke-width="1" opacity="1"/><line transform="translate(0,66)" x2="-5" y2="0" stroke="#888" stroke-width="1" opacity="1"/><line transform="translate(0,63)" x2="-5" y2="0" stroke="#888" stroke-width="1" opacity="1"/><line transform="translate(0,60)" x2="-5" y2="0" stroke="#888" stroke-width="1" opacity="1"/><line transform="translate(0,42)" x2="-5" y2="0" stroke="#888" stroke-width="1" opacity="1"/><line transform="translate(0,31)" x2="-5" y2="0" stroke="#888" stroke-width="1" opacity="1"/><line transform="translate(0,24)" x2="-5" y2="0" stroke="#888" stroke-width="1" opacity="1"/><line transform="translate(0,18)" x2="-5" y2="0" stroke="#888" stroke-width="1" opacity="1"/><line transform="translate(0,13)" x2="-5" y2="0" stroke="#888" stroke-width="1" opacity="1"/><line transform="translate(0,9)" x2="-5" y2="0" stroke="#888" stroke-width="1" opacity="1"/><line transform="translate(0,6)" x2="-5" y2="0" stroke="#888" stroke-width="1" opacity="1"/><line transform="translate(0,3)" x2="-5" y2="0" stroke="#888" stroke-width="1" opacity="1"/><line transform="translate(0,0)" x2="-5" y2="0" stroke="#888" stroke-width="1" opacity="1"/></g><g class="mark-text role-axis-label" pointer-events="none"><text text-anchor="end" transform="translate(-7,303)" font-family="sans-serif" font-size="10px" fill="#000" opacity="1">1</text><text text-anchor="end" transform="translate(-7,284.9382002601611)" font-family="sans-serif" font-size="10px" fill="#000" opacity="1">2</text><text text-anchor="end" transform="translate(-7,274.37272471682024)" font-family="sans-serif" font-size="10px" fill="#000" opacity="1"/><text text-anchor="end" transform="translate(-7,266.87640052032225)" font-family="sans-serif" font-size="10px" fill="#000" opacity="1"/><text text-anchor="end" transform="translate(-7,261.0617997398389)" font-family="sans-serif" font-size="10px" fill="#000" opacity="1"/><text text-anchor="end" transform="translate(-7,256.31092497698137)" font-family="sans-serif" font-size="10px" fill="#000" opacity="1"/><text text-anchor="end" transform="translate(-7,252.2941175991446)" font-family="sans-serif" font-size="10px" fill="#000" opacity="1"/><text text-anchor="end" transform="translate(-7,248.8146007804834)" font-family="sans-serif" font-size="10px" fill="#000" opacity="1"/><text text-anchor="end" transform="translate(-7,245.74544943364052)" font-family="sans-serif" font-size="10px" fill="#000" opacity="1"/><text text-anchor="end" transform="translate(-7,243)" font-family="sans-serif" font-size="10px" fill="#000" opacity="1">10</text><text text-anchor="end" transform="translate(-7,224.93820026016112)" font-family="sans-serif" font-size="10px" fill="#000" opacity="1">20</text><text text-anchor="end" transform="translate(-7,214.37272471682027)" font-family="sans-serif" font-size="10px" fill="#000" opacity="1"/><text text-anchor="end" transform="translate(-7,206.87640052032228)" font-family="sans-serif" font-size="10px" fill="#000" opacity="1"/><text text-anchor="end" transform="translate(-7,201.06179973983888)" font-family="sans-serif" font-size="10px" fill="#000" opacity="1"/><text text-anchor="end" transform="translate(-7,196.31092497698137)" font-family="sans-serif" font-size="10px" fill="#000" opacity="1"/><text text-anchor="end" transform="translate(-7,192.29411759914458)" font-family="sans-serif" font-size="10px" fill="#000" opacity="1"/><text text-anchor="end" transform="translate(-7,188.81460078048337)" font-family="sans-serif" font-size="10px" fill="#000" opacity="1"/><text text-anchor="end" transform="translate(-7,185.74544943364052)" font-family="sans-serif" font-size="10px" fill="#000" opacity="1"/><text text-anchor="end" transform="translate(-7,183)" font-family="sans-serif" font-size="10px" fill="#000" opacity="1">100</text><text text-anchor="end" transform="translate(-7,164.93820026016112)" font-family="sans-serif" font-size="10px" fill="#000" opacity="1">200</text><text text-anchor="end" transform="translate(-7,154.37272471682027)" font-family="sans-serif" font-size="10px" fill="#000" opacity="1"/><text text-anchor="end" transform="translate(-7,146.87640052032225)" font-family="sans-serif" font-size="10px" fill="#000" opacity="1"/><text text-anchor="end" transform="translate(-7,141.06179973983888)" font-family="sans-serif" font-size="10px" fill="#000" opacity="1"/><text text-anchor="end" transform="translate(-7,136.31092497698137)" font-family="sans-serif" font-size="10px" fill="#000" opacity="1"/><text text-anchor="end" transform="translate(-7,132.29411759914458)" font-family="sans-serif" font-size="10px" fill="#000" opacity="1"/><text text-anchor="end" transform="translate(-7,128.81460078048337)" font-family="sans-serif" font-size="10px" fill="#000" opacity="1"/><text text-anchor="end" transform="translate(-7,125.7454494336405)" font-family="sans-serif" font-size="10px" fill="#000" opacity="1"/><text text-anchor="end" transform="translate(-7,123)" font-family="sans-serif" font-size="10px" fill="#000" opacity="1">1,000</text><text text-anchor="end" transform="translate(-7,104.93820026016114)" font-family="sans-serif" font-size="10px" fill="#000" opacity="1">2,000</text><text text-anchor="end" transform="translate(-7,94.37272471682026)" font-family="sans-serif" font-size="10px" fill="#000" opacity="1"/><text text-anchor="end" transform="translate(-7,86.87640052032226)" font-family="sans-serif" font-size="10px" fill="#000" opacity="1"/><text text-anchor="end" transform="translate(-7,81.06179973983886)" font-family="sans-serif" font-size="10px" fill="#000" opacity="1"/><text text-anchor="end" transform="translate(-7,76.3109249769814)" font-family="sans-serif" font-size="10px" fill="#000" opacity="1"/><text text-anchor="end" transform="translate(-7,72.29411759914461)" font-family="sans-serif" font-size="10px" fill="#000" opacity="1"/><text text-anchor="end" transform="translate(-7,68.8146007804834)" font-family="sans-serif" font-size="10px" fill="#000" opacity="1"/><text text-anchor="end" transform="translate(-7,65.74544943364049)" font-family="sans-serif" font-size="10px" fill="#000" opacity="1"/><text text-anchor="end" transform="translate(-7,62.999999999999986)" font-family="sans-serif" font-size="10px" fill="#000" opacity="1">10,000</text><text text-anchor="end" transform="translate(-7,44.93820026016115)" font-family="sans-serif" font-size="10px" fill="#000" opacity="1">20,000</text><text text-anchor="end" transform="translate(-7,34.372724716820244)" font-family="sans-serif" font-size="10px" fill="#000" opacity="1"/><text text-anchor="end" transform="translate(-7,26.87640052032228)" font-family="sans-serif" font-size="10px" fill="#000" opacity="1"/><text text-anchor="end" transform="translate(-7,21.061799739838868)" font-family="sans-serif" font-size="10px" fill="#000" opacity="1"/><text text-anchor="end" transform="translate(-7,16.310924976981376)" font-family="sans-serif" font-size="10px" fill="#000" opacity="1"/><text text-anchor="end" transform="translate(-7,12.294117599144624)" font-family="sans-serif" font-size="10px" fill="#000" opacity="1"/><text text-anchor="end" transform="translate(-7,8.814600780483413)" font-family="sans-serif" font-size="10px" fill="#000" opacity="1"/><text text-anchor="end" transform="translate(-7,5.745449433640534)" font-family="sans-serif" font-size="10px" fill="#000" opacity="1"/><text text-anchor="end" transform="translate(-7,3)" font-family="sans-serif" font-size="10px" fill="#000" opacity="1">100,000</text></g><g class="mark-rule role-axis-domain" pointer-events="none"><line transform="translate(0,300)" x2="0" y2="-300" stroke="#888" stroke-width="1" opacity="1"/></g><g class="mark-text role-axis-title" pointer-events="none"><text text-anchor="middle" transform="translate(-47.1474609375,150) rotate(-90) translate(0,-2)" font-family="sans-serif" font-size="11px" font-weight="bold" fill="#000" opacity="1">Ilość klastrów</text></g></g><path class="foreground" aria-hidden="true" d="" pointer-events="none" display="none"/></g></g><g class="mark-rect role-mark marks" role="graphics-object" aria-roledescription="rect mark container"><path aria-label="Rozmiar klastru: 0 – 15; Ilość klastrów: 89740" role="graphics-symbol" aria-roledescription="bar" d="M1,2.8208360881766814h6.894736842105263v297.1791639118233h-6.894736842105263Z" fill="#4c78a8"/><path aria-label="Rozmiar klastru: 15 – 30; Ilość klastrów: 984" role="graphics-symbol" aria-roledescription="bar" d="M8.894736842105264,120.42029409411951h6.894736842105262v179.57970590588047h-6.894736842105262Z" fill="#4c78a8"/><path aria-label="Rozmiar klastru: 30 – 45; Ilość klastrów: 449" role="graphics-symbol" aria-roledescription="bar" d="M16.789473684210527,140.86521953980062h6.89473684210526v159.13478046019938h-6.89473684210526Z" fill="#4c78a8"/><path aria-label="Rozmiar klastru: 45 – 60; Ilość klastrów: 59" role="graphics-symbol" aria-roledescription="bar" d="M24.684210526315788,193.74887930147133h6.894736842105264v106.25112069852867h-6.894736842105264Z" fill="#4c78a8"/><path aria-label="Rozmiar klastru: 60 – 75; Ilość klastrów: 21" role="graphics-symbol" aria-roledescription="bar" d="M32.578947368421055,220.66684231596483h6.89473684210526v79.33315768403517h-6.89473684210526Z" fill="#4c78a8"/><path aria-label="Rozmiar klastru: 75 – 90; Ilość klastrów: 8" role="graphics-symbol" aria-roledescription="bar" d="M40.473684210526315,245.8146007804834h6.89473684210526v54.1853992195166h-6.89473684210526Z" fill="#4c78a8"/><path aria-label="Rozmiar klastru: 90 – 105; Ilość klastrów: 3" role="graphics-symbol" aria-roledescription="bar" d="M48.368421052631575,271.37272471682024h6.894736842105267v28.627275283179756h-6.894736842105267Z" fill="#4c78a8"/><path aria-label="Rozmiar klastru: 105 – 120; Ilość klastrów: 1" role="graphics-symbol" aria-roledescription="bar" d="M56.26315789473684,300h6.89473684210526v0h-6.89473684210526Z" fill="#4c78a8"/><path aria-label="Rozmiar klastru: 120 – 135; Ilość klastrów: 1" role="graphics-symbol" aria-roledescription="bar" d="M64.15789473684211,300h6.89473684210526v0h-6.89473684210526Z" fill="#4c78a8"/><path aria-label="Rozmiar klastru: 150 – 165; Ilość klastrów: 2" role="graphics-symbol" aria-roledescription="bar" d="M79.94736842105263,281.9382002601611h6.894736842105274v18.061799739838875h-6.894736842105274Z" fill="#4c78a8"/><path aria-label="Rozmiar klastru: 165 – 180; Ilość klastrów: 1" role="graphics-symbol" aria-roledescription="bar" d="M87.8421052631579,300h6.894736842105246v0h-6.894736842105246Z" fill="#4c78a8"/><path aria-label="Rozmiar klastru: 210 – 225; Ilość klastrów: 1" role="graphics-symbol" aria-roledescription="bar" d="M111.52631578947368,300h6.89473684210526v0h-6.89473684210526Z" fill="#4c78a8"/><path aria-label="Rozmiar klastru: 315 – 330; Ilość klastrów: 1" role="graphics-symbol" aria-roledescription="bar" d="M166.78947368421055,300h6.89473684210526v0h-6.89473684210526Z" fill="#4c78a8"/><path aria-label="Rozmiar klastru: 555 – 570; Ilość klastrów: 1" role="graphics-symbol" aria-roledescription="bar" d="M293.10526315789474,300h6.89473684210526v0h-6.89473684210526Z" fill="#4c78a8"/></g><g class="mark-group role-title"><g transform="translate(150,-22)"><path class="background" aria-hidden="true" d="M0,0h0v0h0Z" pointer-events="none"/><g><g class="mark-text role-title-text" role="graphics-symbol" aria-roledescription="title" aria-label="Title text 'Rozkład wielkości klastrów'" pointer-events="none"><text text-anchor="middle" transform="translate(0,10)" font-family="sans-serif" font-size="13px" font-weight="bold" fill="#000" opacity="1">Rozkład wielkości klastrów</text></g></g><path class="foreground" aria-hidden="true" d="" pointer-events="none" display="none"/></g></g></g><path class="foreground" aria-hidden="true" d="" display="none"/></g></g></g></svg>